<svg clip-rule="evenodd" fill-rule="evenodd" stroke-linejoin="round" stroke-miterlimit="2" viewBox="0 0 772 772" xmlns="http://www.w3.org/2000/svg" xmlns:xlink="http://www.w3.org/1999/xlink"><radialGradient id="a" cx="0" cy="0" gradientTransform="matrix(1574.88 -779.72 -779.72 -1574.88 0 772)" gradientUnits="userSpaceOnUse" r="1"><stop offset="0" stop-color="#3023ae"/><stop offset="1" stop-color="#c86dd7"/></radialGradient><path d="m0 0h1544v772h-1544z" fill="url(#a)" transform="matrix(.5 -0 0 -1 0 772)"/><g fill-rule="nonzero"><path d="m21 3c.552 0 1 .448 1 1v16c0 .552-.448 1-1 1h-18c-.552 0-1-.448-1-1v-16c0-.552.448-1 1-1zm-1 2h-16v14h16zm-12 2v10h-2v-10z" fill="#adb8c2" transform="matrix(10.4535328587 -2.22197063295 2.22197063295 10.4535328587 233.894146508 489.620800292)"/><path d="m20.596 3.903-4.597 4.597 4.597 4.596 1.414-1.414-3.182-3.182 3.182-3.182zm.404 16.097v-2h-18v2zm-9-7v-2h-9v2zm0-7v-2h-9v2z" fill="#ffc514" transform="matrix(4.9284693084 -1.04583087225 1.04583087225 4.9284693084 285.88108997 547.163850419)"/><g fill="#ff9414" transform="translate(-340.471 -123.475)"><path d="m379.936 283.15h5.552c6.15 0 9.225-2.676 9.225-8.029s-3.075-8.029-9.225-8.029h-5.552zm0 34.85h-16.742v-64.404h26.65c7.232 0 12.77 1.879 16.614 5.637 3.843 3.759 5.765 9.054 5.765 15.888 0 6.833-1.922 12.129-5.765 15.887-3.844 3.759-9.382 5.638-16.614 5.638h-9.908z"/><path d="m419.655 247.104h15.46v70.896h-15.46z"/><path d="m461.167 274.181v24.686c0 5.409 2.62 8.114 7.858 8.114 5.239 0 7.859-2.705 7.859-8.114v-24.686h15.46v27.675c0 5.922-1.95 10.364-5.851 13.325s-9.723 4.442-17.468 4.442c-7.744 0-13.567-1.481-17.467-4.442-3.901-2.961-5.851-7.403-5.851-13.325v-27.675z"/><path d="m517.2 295.877c0 1.424.257 2.748.769 3.972.513 1.224 1.21 2.292 2.093 3.203s1.936 1.623 3.16 2.135c1.225.513 2.549.769 3.972.769 1.367 0 2.662-.256 3.887-.769 1.224-.512 2.277-1.224 3.16-2.135s1.594-1.979 2.135-3.203.812-2.52.812-3.887c0-1.423-.271-2.733-.812-3.929s-1.267-2.249-2.178-3.16-1.978-1.623-3.203-2.136c-1.224-.512-2.491-.768-3.801-.768-1.367 0-2.648.27-3.844.811-1.195.541-2.249 1.253-3.16 2.136-.911.882-1.637 1.921-2.178 3.117s-.812 2.477-.812 3.844zm34.68-21.696v40.829c0 2.449-.143 4.641-.428 6.577-.284 1.937-.683 3.645-1.195 5.125-.684 1.88-1.751 3.631-3.203 5.254-1.453 1.623-3.204 3.032-5.254 4.228s-4.37 2.135-6.961 2.818c-2.591.684-5.396 1.025-8.414 1.025-3.416 0-6.548-.427-9.395-1.281-2.848-.854-5.339-2.036-7.474-3.545-2.136-1.509-3.887-3.274-5.254-5.295-1.366-2.022-2.277-4.229-2.733-6.62h17.425c1.082 2.904 3.531 4.356 7.346 4.356 3.246 0 5.737-.911 7.474-2.733s2.605-4.357 2.605-7.602v-4.186c-1.139 1.082-2.235 1.979-3.288 2.691-1.054.712-2.122 1.295-3.204 1.751-1.081.455-2.22.783-3.416.982-1.196.2-2.506.299-3.929.299-3.132 0-6.008-.541-8.627-1.623-2.62-1.082-4.883-2.591-6.791-4.527s-3.388-4.256-4.442-6.961c-1.053-2.705-1.58-5.709-1.58-9.012 0-3.359.57-6.477 1.708-9.353 1.139-2.876 2.691-5.381 4.656-7.517 1.964-2.135 4.299-3.815 7.004-5.039s5.652-1.837 8.84-1.837c5.182 0 9.539 1.937 13.069 5.809v-4.613z"/><path d="m577.846 274.181v43.819h-15.46v-43.819zm-16.485-16.827c0-1.196.228-2.32.683-3.374.456-1.053 1.082-1.979 1.879-2.776.798-.797 1.723-1.423 2.776-1.879 1.054-.456 2.178-.683 3.374-.683s2.321.227 3.374.683c1.054.456 1.979 1.082 2.776 1.879.798.797 1.424 1.723 1.879 2.776.456 1.054.684 2.178.684 3.374s-.228 2.321-.684 3.374c-.455 1.054-1.081 1.979-1.879 2.776-.797.797-1.722 1.424-2.776 1.879-1.053.456-2.178.684-3.374.684s-2.32-.228-3.374-.684c-1.053-.455-1.978-1.082-2.776-1.879-.797-.797-1.423-1.722-1.879-2.776-.455-1.053-.683-2.178-.683-3.374z"/><path d="m588.438 274.181h15.46v5.552c2.107-2.562 4.243-4.285 6.407-5.167 2.163-.883 4.697-1.324 7.602-1.324 3.075 0 5.708.498 7.901 1.494 2.192.997 4.057 2.406 5.594 4.229 1.253 1.48 2.107 3.132 2.563 4.954s.683 3.9.683 6.235v27.846h-15.46v-22.123c0-2.164-.157-3.915-.47-5.253s-.868-2.406-1.666-3.203c-.683-.684-1.452-1.168-2.306-1.452-.854-.285-1.765-.427-2.733-.427-2.62 0-4.627.783-6.022 2.349s-2.093 3.801-2.093 6.705v23.404h-15.46z"/><path d="m711.011 270.081c-1.822-1.48-3.645-2.576-5.467-3.288s-3.587-1.068-5.296-1.068c-2.164 0-3.929.512-5.296 1.537-1.366 1.025-2.05 2.364-2.05 4.015 0 1.139.342 2.079 1.025 2.819.684.74 1.581 1.381 2.691 1.922 1.111.541 2.363 1.01 3.758 1.409 1.396.399 2.776.826 4.143 1.281 5.467 1.823 9.467 4.257 12.001 7.303 2.534 3.047 3.801 7.019 3.801 11.916 0 3.303-.555 6.292-1.665 8.969-1.111 2.676-2.734 4.968-4.869 6.876-2.136 1.908-4.755 3.388-7.858 4.442-3.104 1.053-6.62 1.58-10.549 1.58-8.143 0-15.689-2.42-22.636-7.261l7.175-13.496c2.506 2.221 4.983 3.873 7.431 4.955 2.449 1.082 4.869 1.623 7.261 1.623 2.733 0 4.769-.627 6.107-1.88 1.338-1.252 2.007-2.676 2.007-4.27 0-.968-.17-1.808-.512-2.52s-.911-1.367-1.708-1.965c-.798-.598-1.837-1.153-3.118-1.665-1.281-.513-2.833-1.082-4.655-1.709-2.164-.683-4.285-1.438-6.364-2.263-2.078-.826-3.929-1.922-5.552-3.289s-2.933-3.089-3.929-5.168c-.997-2.078-1.495-4.712-1.495-7.901 0-3.188.527-6.078 1.58-8.669 1.054-2.591 2.534-4.812 4.442-6.663s4.242-3.288 7.004-4.313 5.851-1.538 9.268-1.538c3.189 0 6.52.441 9.994 1.324 3.473.883 6.804 2.178 9.993 3.886z"/><path d="m744.836 274.181v24.686c0 5.409 2.619 8.114 7.858 8.114s7.858-2.705 7.858-8.114v-24.686h15.461v27.675c0 5.922-1.95 10.364-5.851 13.325s-9.723 4.442-17.468 4.442c-7.744 0-13.567-1.481-17.468-4.442-3.9-2.961-5.851-7.403-5.851-13.325v-27.675z"/><path d="m821.455 296.219c0-1.367-.257-2.662-.769-3.887-.513-1.224-1.224-2.292-2.136-3.203-.911-.911-1.964-1.637-3.16-2.178s-2.506-.811-3.929-.811c-1.367 0-2.648.256-3.844.768-1.196.513-2.235 1.225-3.118 2.136-.882.911-1.594 1.979-2.135 3.203s-.812 2.52-.812 3.886c0 1.367.257 2.648.769 3.844.513 1.196 1.225 2.235 2.136 3.118.911.882 1.978 1.594 3.203 2.135 1.224.541 2.52.812 3.886.812 1.367 0 2.648-.257 3.844-.769 1.196-.513 2.235-1.224 3.118-2.136.882-.911 1.594-1.964 2.135-3.16s.812-2.449.812-3.758zm-19.475-49.115v31.433c3.644-3.815 8.2-5.722 13.666-5.722 3.246 0 6.221.612 8.926 1.836s5.011 2.876 6.919 4.954c1.908 2.079 3.402 4.527 4.484 7.346s1.623 5.823 1.623 9.011c0 3.246-.555 6.293-1.665 9.14-1.111 2.847-2.662 5.324-4.656 7.431-1.993 2.107-4.342 3.773-7.046 4.997-2.705 1.225-5.624 1.837-8.756 1.837-5.694 0-10.193-2.079-13.495-6.236v4.869h-15.461v-70.896z"/><path d="m846.396 274.181h15.461v5.381c4.214-4.043 8.94-6.064 14.179-6.064 6.491 0 11.446 2.733 14.862 8.2 3.474-5.524 8.428-8.286 14.863-8.286 2.05 0 3.986.299 5.808.897s3.388 1.538 4.698 2.819 2.349 2.947 3.118 4.997 1.153 4.527 1.153 7.431v28.444h-15.461v-21.61c0-2.221-.156-4.043-.469-5.467s-.769-2.534-1.367-3.331c-.598-.798-1.295-1.339-2.093-1.623-.797-.285-1.651-.427-2.562-.427-4.954 0-7.431 3.616-7.431 10.848v21.61h-15.461v-21.61c0-2.221-.142-4.058-.427-5.51s-.697-2.605-1.238-3.459-1.239-1.438-2.093-1.751-1.851-.47-2.99-.47c-.968 0-1.879.142-2.733.427s-1.609.84-2.264 1.666c-.654.825-1.167 1.964-1.537 3.416s-.555 3.346-.555 5.681v21.61h-15.461z"/><path d="m963.161 289.727c-.513-2.164-1.566-3.901-3.161-5.21-1.594-1.31-3.53-1.965-5.808-1.965-2.392 0-4.342.626-5.851 1.879s-2.463 3.018-2.861 5.296zm-18.109 8.969c0 6.662 3.132 9.994 9.396 9.994 3.36 0 5.894-1.367 7.602-4.1h14.948c-3.018 10.022-10.563 15.033-22.635 15.033-3.701 0-7.09-.555-10.165-1.666-3.075-1.11-5.708-2.69-7.901-4.74-2.192-2.05-3.886-4.499-5.082-7.346s-1.794-6.036-1.794-9.567c0-3.644.57-6.933 1.709-9.865 1.138-2.933 2.761-5.424 4.868-7.474s4.656-3.631 7.645-4.741c2.99-1.11 6.364-1.666 10.122-1.666 3.701 0 7.033.556 9.994 1.666s5.466 2.719 7.516 4.826 3.616 4.684 4.698 7.73c1.082 3.047 1.623 6.478 1.623 10.293v1.623z"/><path d="m986.394 274.181h15.466v5.552c2.1-2.562 4.24-4.285 6.4-5.167 2.17-.883 4.7-1.324 7.6-1.324 3.08 0 5.71.498 7.9 1.494 2.2.997 4.06 2.406 5.6 4.229 1.25 1.48 2.11 3.132 2.56 4.954.46 1.822.69 3.9.69 6.235v27.846h-15.47v-22.123c0-2.164-.15-3.915-.47-5.253-.31-1.338-.86-2.406-1.66-3.203-.68-.684-1.45-1.168-2.31-1.452-.85-.285-1.76-.427-2.73-.427-2.62 0-4.63.783-6.02 2.349-1.4 1.566-2.09 3.801-2.09 6.705v23.404h-15.466z"/><path d="m1058.57 274.181v24.686c0 5.409 2.62 8.114 7.86 8.114s7.86-2.705 7.86-8.114v-24.686h15.46v27.675c0 5.922-1.95 10.364-5.85 13.325s-9.73 4.442-17.47 4.442c-7.75 0-13.57-1.481-17.47-4.442s-5.85-7.403-5.85-13.325v-27.675z"/><path d="m473.777 488.833 19.2-113.1h29.1l22.65 60.3 22.5-60.3h29.1l19.2 113.1h-29.25l-9.75-65.1-26.7 65.1h-11.7l-25.35-65.1-9.75 65.1z"/><path d="m657.228 449.983c0 2.6.474 4.975 1.424 7.125.951 2.15 2.201 4.025 3.75 5.625 1.55 1.6 3.4 2.85 5.55 3.75 2.151.9 4.425 1.35 6.825 1.35s4.675-.45 6.826-1.35c2.149-.9 4-2.15 5.549-3.75 1.55-1.6 2.8-3.475 3.75-5.625.951-2.15 1.425-4.475 1.425-6.975 0-2.4-.474-4.675-1.425-6.825-.95-2.15-2.2-4.025-3.75-5.625-1.549-1.6-3.4-2.85-5.549-3.75-2.151-.9-4.426-1.35-6.826-1.35s-4.674.45-6.825 1.35c-2.15.9-4 2.15-5.55 3.75-1.549 1.6-2.799 3.45-3.75 5.55-.95 2.1-1.424 4.35-1.424 6.75zm-28.651-.3c0-5.7 1.151-11.025 3.45-15.975 2.3-4.95 5.5-9.25 9.6-12.9 4.101-3.65 8.976-6.525 14.625-8.625 5.65-2.1 11.825-3.15 18.525-3.15 6.6 0 12.725 1.025 18.375 3.075s10.55 4.9 14.701 8.55c4.149 3.65 7.375 8 9.674 13.05 2.3 5.05 3.451 10.625 3.451 16.725s-1.176 11.675-3.526 16.725c-2.349 5.05-5.575 9.4-9.675 13.05s-9.025 6.475-14.775 8.475-11.975 3-18.675 3c-6.599 0-12.7-1-18.3-3s-10.424-4.85-14.475-8.55c-4.05-3.7-7.225-8.125-9.525-13.275-2.299-5.15-3.45-10.875-3.45-17.175z"/><path d="m753.977 411.883 18.3 39.45 18.6-39.45h30.3l-40.05 76.95h-18.15l-39.6-76.95z"/><path d="m883.127 439.183c-.9-3.8-2.75-6.85-5.55-9.15s-6.2-3.45-10.2-3.45c-4.2 0-7.625 1.1-10.275 3.3s-4.325 5.3-5.025 9.3zm-31.8 15.75c0 11.7 5.5 17.55 16.5 17.55 5.9 0 10.35-2.4 13.35-7.2h26.25c-5.3 17.6-18.55 26.4-39.75 26.4-6.5 0-12.45-.975-17.85-2.925s-10.025-4.725-13.875-8.325-6.825-7.9-8.925-12.9-3.15-10.6-3.15-16.8c0-6.4 1-12.175 3-17.325s4.85-9.525 8.55-13.125 8.175-6.375 13.425-8.325 11.175-2.925 17.775-2.925c6.5 0 12.35.975 17.55 2.925s9.6 4.775 13.2 8.475 6.35 8.225 8.25 13.575 2.85 11.375 2.85 18.075v2.85z"/><path d="m923.927 411.883h27.15v12.6c2.9-4.6 6.45-8.125 10.65-10.575s9.1-3.675 14.7-3.675h2.325c.85 0 1.825.1 2.925.3v25.95c-3.6-1.8-7.5-2.7-11.7-2.7-6.3 0-11.025 1.875-14.175 5.625s-4.725 9.225-4.725 16.425v33h-27.15z"/></g></g></svg>